<svg version="1.1" id="Layer_1" xmlns="http://www.w3.org/2000/svg" xmlns:xlink="http://www.w3.org/1999/xlink" x="0px" y="0px" viewBox="0 0 500 500" style="width: 140px;" xml:space="preserve" data-imageid="camera-68" imageName="Camera" class="illustrations_image">
<style type="text/css">
	.st0_camera-68{fill:#FFFFFF;}
	.st1_camera-68{fill:#231F20;}
	.st2_camera-68{fill:#D1D3D4;}
	.st3_camera-68{fill:#101415;}
</style>
<g id="Photo_camera-68">
	<polygon class="st0_camera-68" points="320.2,307.7 206,370.8 316,389.8 417.8,328.9 &#9;"/>
	<path class="st1_camera-68" d="M316,390.5h-0.1l-110.1-19c-0.4-0.1-0.6-0.4-0.6-0.8c0-0.2,0.2-0.4,0.3-0.5l114.2-63.1&#10;&#9;&#9;c0.1-0.1,0.3-0.1,0.5-0.1l97.7,21.2c0.4,0.1,0.6,0.4,0.6,0.8c0,0.2-0.2,0.4-0.3,0.5l-101.8,60.9C316.3,390.5,316.1,390.5,316,390.5&#10;&#9;&#9;z M208,370.5l107.9,18.6L416,329.2l-95.7-20.8L208,370.5z"/>
	<path class="st2_camera-68" d="M315.3,381.2h-0.1l-37.3-7.6c-0.4-0.1-0.6-0.4-0.5-0.8c0.1-0.4,0.4-0.6,0.8-0.6l37,7.5l78.7-48.3l-38.5-8.5&#10;&#9;&#9;c-0.4-0.1-0.7-0.4-0.6-0.8c0.1-0.4,0.4-0.7,0.8-0.6c0,0,0.1,0,0.1,0l40.1,8.9c0.3,0.1,0.5,0.3,0.5,0.6c0,0.3-0.1,0.6-0.3,0.7&#10;&#9;&#9;l-80.4,49.3C315.6,381.2,315.5,381.2,315.3,381.2z"/>
	<polygon class="st0_camera-68" points="271.5,309 164,367.4 274,386.4 369.2,330.2 &#9;"/>
	<path class="st1_camera-68" d="M274,387h-0.1l-110.1-19c-0.3-0.1-0.5-0.3-0.6-0.6c-0.1-0.3,0.1-0.6,0.4-0.7l107.6-58.3&#10;&#9;&#9;c0.1-0.1,0.3-0.1,0.5-0.1l97.6,21.2c0.3,0.1,0.5,0.3,0.5,0.6c0,0.3-0.1,0.6-0.3,0.7L274.4,387C274.3,387,274.2,387.1,274,387z&#10;&#9;&#9; M166,367l107.8,18.6l93.4-55.1l-95.6-20.8L166,367z"/>
	<path class="st2_camera-68" d="M271.8,375.3h-0.1l-80-13.2c-0.3-0.1-0.5-0.3-0.6-0.6c-0.1-0.3,0.1-0.6,0.3-0.7l86.8-48.5&#10;&#9;&#9;c0.2-0.1,0.4-0.1,0.5-0.1l65.2,18.8c0.4,0.1,0.6,0.5,0.5,0.9c0,0.2-0.2,0.3-0.3,0.4l-71.9,43C272.1,375.3,271.9,375.3,271.8,375.3z&#10;&#9;&#9; M193.8,361l77.8,12.9l70.3-42l-63.3-18.3L193.8,361z"/>
</g>
<g id="Camera_camera-68">
	<path class="st0_camera-68" d="M116.2,146.8c-0.8,5.8-1.4,10.2-3.7,15.8c-4.4,10.8-9.7,21.8-19,29.1c-0.2,0.2-0.4,0.3-0.6,0.5&#10;&#9;&#9;c-10.6,7.9-21,14.6-28.6,25.7c-1.9,2.7-3.5,5.6-4.8,8.6c-8.1,17.8-7.8,40.9,12.1,50.1c3.1,1.4,24.8,1.2,24.8-5&#10;&#9;&#9;c0.2,9,0.3,17.9,0.5,26.9c-20.3,7.4-45.1,0.2-58-16.8c-26.1-34.4,1.8-82.4,32.4-103.3c1.9-1.3,4-2.6,6-3.8&#10;&#9;&#9;c8.6-5.1,17.6-9.9,22.8-18.2c4.5-7.1,5.4-15.9,6.1-24.3c0,1.1,7.4,4.8,8.4,5.8C118,141.6,116.8,141.6,116.2,146.8z"/>
	<path class="st1_camera-68" d="M80.1,302c-16.1,0-32.3-7.3-41.9-20c-9-11.8-12.2-25.7-9.7-41.3c4.3-26.5,24.3-50.7,42.2-63&#10;&#9;&#9;c2-1.4,4.1-2.6,6-3.8l2.7-1.6c7.5-4.4,15.3-9,19.9-16.4c4.2-6.8,5.2-14.9,6-23.9c0-0.4,0.4-0.6,0.7-0.6c0.4,0,0.7,0.3,0.7,0.7&#10;&#9;&#9;c1.5,1.2,3.1,2.2,4.8,3.1c1.2,0.6,2.3,1.4,3.4,2.2c2.9,3.1,2.9,3.9,2.3,6.8c-0.1,0.7-0.3,1.6-0.4,2.7l0,0c-0.8,6-1.4,10.4-3.7,16&#10;&#9;&#9;c-4.4,10.9-9.8,22-19.2,29.3c-0.2,0.2-0.4,0.3-0.6,0.5c-1.5,1.1-2.9,2.2-4.4,3.2c-9,6.6-17.5,12.8-24.1,22.3&#10;&#9;&#9;c-1.8,2.7-3.4,5.5-4.8,8.5c-7.9,17.4-7.6,40.2,11.8,49.2c2.2,1,17,1.2,22.3-2.1c0.9-0.4,1.5-1.3,1.6-2.2c0-0.4,0.3-0.7,0.7-0.7h0&#10;&#9;&#9;l0,0c0.4,0,0.7,0.3,0.7,0.7c0,0,0,0,0,0l0.5,26.9c0,0.3-0.2,0.6-0.5,0.6C91.6,301,85.9,302,80.1,302z M106.6,133.7&#10;&#9;&#9;c-0.8,8.6-1.9,16.4-6.1,23c-4.8,7.6-12.7,12.3-20.3,16.9l-2.7,1.6c-1.9,1.1-4,2.4-5.9,3.8c-17.7,12-37.4,35.9-41.6,62&#10;&#9;&#9;c-2.5,15.2,0.7,28.8,9.4,40.2c12.6,16.6,36.9,23.7,56.7,16.7l-0.4-23.6c-0.3,0.2-0.6,0.5-0.9,0.7c-5.6,3.6-20.8,3.6-23.6,2.2&#10;&#9;&#9;c-20.3-9.4-20.7-33.1-12.5-51.1c1.4-3,3-5.9,4.9-8.7c6.7-9.6,15.3-15.9,24.4-22.6c1.5-1.1,2.9-2.1,4.4-3.2c0.2-0.1,0.4-0.3,0.6-0.4&#10;&#9;&#9;c9.2-7.1,14.5-18,18.8-28.8c2.2-5.4,2.9-9.7,3.6-15.7l0,0c0.2-1.1,0.3-2,0.5-2.8c0.5-2.6,0.6-2.9-2-5.6c-1-0.7-2-1.4-3.1-2&#10;&#9;&#9;C108.8,135.1,107.5,134.3,106.6,133.7L106.6,133.7z"/>
	<path class="st1_camera-68" d="M116.2,146.8c-0.8,5.8-1.4,10.2-3.7,15.8c-4.4,10.8-9.7,21.8-19,29.1c-2-5.5-5.6-10.3-10.2-13.8&#10;&#9;&#9;c-1.8-1.4-3.9-2.5-6-3.4c8.6-5.1,17.6-9.9,22.8-18.2c4.5-7.1,5.4-15.9,6.1-24.3c0,1.1,7.4,4.8,8.4,5.8&#10;&#9;&#9;C118,141.6,116.8,141.6,116.2,146.8z"/>
	<path class="st1_camera-68" d="M93.4,192.4c-0.1,0-0.1,0-0.2,0c-0.2-0.1-0.4-0.2-0.5-0.4c-1.9-5.4-5.4-10-10-13.4c-1.8-1.3-3.8-2.4-5.9-3.3&#10;&#9;&#9;c-0.2-0.1-0.4-0.3-0.4-0.6c0-0.3,0.1-0.5,0.3-0.6c0.9-0.6,1.8-1.1,2.7-1.6c7.5-4.4,15.3-9.1,19.9-16.4c4.2-6.8,5.2-14.9,6-23.9&#10;&#9;&#9;c0-0.4,0.3-0.7,0.7-0.6c0,0,0,0,0,0c0.4,0,0.7,0.3,0.7,0.7c1.5,1.2,3.1,2.2,4.8,3.1c1.2,0.6,2.3,1.4,3.4,2.2&#10;&#9;&#9;c2.9,3.1,2.9,3.9,2.3,6.8c-0.1,0.7-0.3,1.6-0.4,2.7c-0.8,6-1.5,10.4-3.7,16c-4.4,10.9-9.8,22-19.3,29.3&#10;&#9;&#9;C93.7,192.3,93.6,192.4,93.4,192.4z M78.7,174.4c1.7,0.8,3.4,1.8,4.9,2.9c4.5,3.4,8.1,7.9,10.1,13.2c8.7-7.1,13.8-17.7,18.1-28.2&#10;&#9;&#9;c2.2-5.4,2.9-9.7,3.6-15.7l0,0c0.2-1.1,0.3-2,0.5-2.8c0.5-2.6,0.6-2.9-2-5.6c-1-0.7-2-1.4-3.1-2c-1.5-0.8-2.9-1.7-4.2-2.7&#10;&#9;&#9;c-0.8,8.6-1.9,16.4-6.1,23c-4.8,7.6-12.7,12.3-20.3,16.9L78.7,174.4z"/>
	<path class="st1_camera-68" d="M419.7,324c-6.7,0.4-12.9-2.6-19.2-5.4c-6.8-3-14.2-5.8-21.3-3.6c-4.5,1.4-9.4,5.6-14.2,4.8&#10;&#9;&#9;c-4.5-0.8-10.3-4.2-13.8-7.3l1.6-9.1c0.5-2.9,1.3-5.9,1.6-8.8c0.1-1.7-0.5-3.5-0.3-5.1c0.5-3.6,2.3-2.7,4.5-1.6&#10;&#9;&#9;c2.1,1,4.2,1.6,6.5,2c4.3,0.7,8.7,0.4,12.8-1c3-1,5.8-2.6,8.8-3.5c3.5-1,7.3-1,10.9,0c7.1,2.1,13,8,20.1,9.6&#10;&#9;&#9;c9.7,2.2,17-4.1,25.4-7.7c5.3-2.2,10-5.5,13.9-9.8c-0.5,0.6-0.4,3.8-0.6,4.6c-0.6,3.8-1.5,7.6-2.6,11.3c-3.1,10-8.5,19.7-16.8,25.2&#10;&#9;&#9;c-4.5,3-9.1,3.9-14.2,5C421.7,323.8,420.7,324,419.7,324z"/>
	<path class="st1_camera-68" d="M418.6,324.7c-6,0-11.7-2.5-17.3-5l-1.1-0.5c-6.4-2.9-13.8-5.7-20.8-3.6c-1.6,0.6-3.2,1.2-4.7,2.1&#10;&#9;&#9;c-3.2,1.6-6.4,3.3-9.8,2.7c-4.9-0.8-10.8-4.5-14.2-7.5c-0.2-0.2-0.3-0.4-0.2-0.6l1.6-9.1c0.2-1,0.4-1.9,0.6-2.9&#10;&#9;&#9;c0.4-1.9,0.8-3.9,1-5.8c0-0.8,0-1.6-0.1-2.3c-0.2-0.9-0.2-1.9-0.1-2.8c0.2-1.6,0.7-2.5,1.5-2.9c1.1-0.6,2.5,0,3.9,0.7&#10;&#9;&#9;c5.9,2.7,12.7,3.1,18.8,1c1.2-0.4,2.5-1,3.7-1.5c1.6-0.8,3.3-1.4,5.1-1.9c3.7-1.1,7.6-1.1,11.2,0c3.4,1.2,6.7,2.8,9.7,4.8&#10;&#9;&#9;c3.3,2,6.7,4,10.4,4.9c7,1.6,12.7-1.4,18.7-4.5c2-1.1,4.1-2.2,6.3-3.1c5.2-2.2,9.8-5.4,13.6-9.6c0.3-0.3,0.7-0.3,1,0c0,0,0,0,0,0&#10;&#9;&#9;c0.3,0.2,0.3,0.7,0.1,1c0,0,0,0,0,0c-0.2,1-0.3,2-0.3,2.9c0,0.6,0,1.1-0.1,1.3c-0.6,3.9-1.5,7.7-2.6,11.4&#10;&#9;&#9;c-2.5,8.2-7.6,19.3-17.1,25.6c-4.5,3-9,3.9-13.9,5l-0.6,0.1c-1,0.2-2.1,0.3-3.1,0.4l0,0C419.4,324.7,419,324.7,418.6,324.7z&#10;&#9;&#9; M419.7,324L419.7,324z M384.5,313.5c5.7,0,11.3,2.2,16.3,4.5l1.1,0.5c6,2.7,11.7,5.2,17.8,4.9l0,0c1,0,1.9-0.2,2.9-0.4l0.6-0.1&#10;&#9;&#9;c4.9-1,9.1-1.9,13.4-4.8c9.2-6.1,14.1-16.9,16.6-24.9c1.1-3.7,2-7.4,2.6-11.2c0-0.4,0.1-0.8,0.1-1.2c0-0.4,0-0.8,0.1-1.2&#10;&#9;&#9;c-3.6,3.5-7.9,6.3-12.5,8.2c-2.1,0.9-4.2,2-6.2,3c-6,3.1-12.2,6.4-19.6,4.7c-3.9-0.9-7.4-3-10.8-5c-2.9-1.9-6.1-3.5-9.4-4.6&#10;&#9;&#9;c-3.4-1-7-1-10.5,0c-1.7,0.5-3.3,1.1-4.9,1.9c-1.2,0.5-2.5,1.1-3.8,1.6c-6.5,2.2-13.5,1.8-19.8-1c-1.2-0.5-2.3-1-2.8-0.8&#10;&#9;&#9;c-0.2,0.1-0.6,0.6-0.8,1.9c-0.1,0.8,0,1.6,0.1,2.4c0.1,0.9,0.2,1.7,0.1,2.6c-0.2,2-0.6,4-1,6c-0.2,1-0.4,1.9-0.6,2.9l-1.6,8.7&#10;&#9;&#9;c3.3,2.8,8.8,6.1,13.2,6.9c2.9,0.5,6-1,9-2.5c1.6-0.9,3.2-1.6,5-2.2C380.8,313.8,382.6,313.5,384.5,313.5z"/>
	<path class="st0_camera-68" d="M101.1,137.5c-0.8,36.9-4.8,181.1-4.8,181.1s159.4,18,201.2,22c38.1,3.7,64.1,3.2,75.4-1.4&#10;&#9;&#9;c9.4-3.8,16.3-13.6,16.3-21.9V166.2c0-22.7-13.9-26.6-24.8-28.3s-88.1-13.5-88.1-13.5c-4.5-4.1-8.7-8.4-12.6-13.1&#10;&#9;&#9;c-6.5-0.6-50.3-2.3-55.8-0.1s-16.5,6.4-16.5,6.4l-61.6-2c0,0-9.1-1.5-21.4,7.8C103.7,126.8,101.1,132,101.1,137.5z"/>
	<path class="st1_camera-68" d="M340.7,343.8c-12,0-26.5-0.8-43.4-2.5c-41.4-4-199.6-21.9-201.2-22c-0.4,0-0.6-0.4-0.6-0.7&#10;&#9;&#9;c0-1.4,4.1-144.6,4.8-181.1c0.1-5.7,2.8-11.1,7.3-14.6c12.4-9.4,21.6-8,22-7.9l61.4,2c1.3-0.5,11.3-4.3,16.4-6.3&#10;&#9;&#9;c5.7-2.3,50.3-0.5,56.1,0c0.2,0,0.4,0.1,0.5,0.3c3.8,4.5,8,8.8,12.4,12.8c4.5,0.7,77.4,11.9,87.9,13.5c12.6,1.9,25.4,6.8,25.4,29&#10;&#9;&#9;v151.1c0,8.9-7.3,18.8-16.7,22.6C366.7,342.5,355.8,343.8,340.7,343.8z M96.9,318c11.1,1.2,160.5,18,200.5,21.9&#10;&#9;&#9;c37.9,3.7,63.9,3.2,75.1-1.3c8.9-3.6,15.8-12.9,15.8-21.3V166.2c0-21.1-11.6-25.7-24.2-27.6c-10.8-1.6-87.4-13.4-88.1-13.5&#10;&#9;&#9;c-0.1,0-0.3-0.1-0.4-0.2c-4.5-4-8.6-8.3-12.5-12.9c-8-0.6-50-2.2-55.2-0.1c-5.4,2.2-16.4,6.3-16.6,6.4c-0.1,0-0.2,0-0.3,0l-61.7-2&#10;&#9;&#9;c-0.2,0-9.1-1.4-21,7.7c-4.2,3.2-6.7,8.2-6.8,13.5C101,172.8,97.2,307.5,96.9,318z M101.1,137.5L101.1,137.5z"/>
	<path class="st2_camera-68" d="M288,324.5h-0.1c-7.8-0.1-106.4-8.4-110.6-8.7c-0.4,0-0.7-0.4-0.6-0.8c0-0.4,0.4-0.7,0.8-0.6&#10;&#9;&#9;c1,0.1,102.7,8.6,110.5,8.7c4.9,0,12.6-3.9,16.6-8.4c1.4-1.6,3.1-4.1,2.7-6.8c-1.1-7.6,0-141.4,0-147.1c0-0.4,0.3-0.7,0.7-0.7&#10;&#9;&#9;c0.4,0,0.7,0.3,0.7,0.7c0,1.4-1.1,139.4,0,146.9c0.4,2.5-0.7,5.2-3,7.9C301.3,320.4,293.3,324.5,288,324.5z"/>
	<path class="st1_camera-68" d="M342.6,335.5c-35.5,0-152.8-12.3-154-12.4c-0.4,0-0.7-0.4-0.6-0.8c0,0,0,0,0,0c0-0.4,0.4-0.7,0.8-0.6&#10;&#9;&#9;c0,0,0,0,0,0c1.3,0.1,130.1,13.6,158.3,12.3c30-1.4,41.3-16.9,41.4-17.1c0.2-0.3,0.7-0.4,1-0.1c0.3,0.2,0.4,0.6,0.2,0.9&#10;&#9;&#9;c-0.5,0.7-11.8,16.3-42.5,17.7C345.9,335.5,344.4,335.5,342.6,335.5z"/>
	<circle class="st0_camera-68" cx="201.4" cy="238" r="79.3"/>
	<path class="st1_camera-68" d="M201.4,318c-44.2,0-80-35.8-80-80s35.8-80,80-80s80,35.8,80,80C281.3,282.2,245.6,318,201.4,318z M201.4,159.4&#10;&#9;&#9;c-43.4,0-78.6,35.2-78.6,78.6c0,43.4,35.2,78.6,78.6,78.6S280,281.4,280,238C279.9,194.6,244.8,159.5,201.4,159.4L201.4,159.4z"/>
	<path class="st0_camera-68" d="M170.5,173c12.1-6.3,26-8.3,39.4-5.8c36.7,6.6,63.7,43.1,60.3,81.4c-2.1,23.4-15,42.2-33.2,51.7l-74.2,38.9&#10;&#9;&#9;c18.2-9.5,31.1-28.2,33.2-51.7c3.4-38.4-23.6-74.8-60.4-81.4c-13.4-2.5-27.3-0.5-39.4,5.8L170.5,173z"/>
	<path class="st1_camera-68" d="M162.8,340c-0.3,0-0.5-0.1-0.6-0.4c-0.2-0.3,0-0.8,0.3-0.9c0,0,0,0,0,0c18.6-9.7,30.8-28.8,32.8-51.1&#10;&#9;&#9;c3.4-37.9-23.5-74.1-59.8-80.7c-13.3-2.5-27-0.5-39,5.7l0,0c-0.3,0.2-0.8,0.1-0.9-0.3c0,0,0,0,0,0c-0.2-0.3-0.1-0.8,0.3-0.9&#10;&#9;&#9;c0,0,0,0,0,0l74.3-38.9c12.2-6.4,26.3-8.5,39.9-5.9c37,6.7,64.3,43.5,60.9,82.2c-2,22.8-14.5,42.3-33.5,52.2l-74.2,38.9&#10;&#9;&#9;C163.1,339.9,163,340,162.8,340z M124.2,204.4c3.9,0,7.8,0.3,11.6,1c37,6.7,64.3,43.5,60.9,82.2c-1.6,18.1-9.9,34.2-22.8,45&#10;&#9;&#9;l62.8-32.9c18.6-9.7,30.8-28.9,32.8-51.1c3.4-38-23.5-74.1-59.8-80.7c-13.3-2.5-27-0.5-39,5.7l-62.8,33&#10;&#9;&#9;C113.3,205.1,118.7,204.4,124.2,204.4z M170.5,173L170.5,173z"/>
	<path class="st1_camera-68" d="M212.9,313.5c-0.4,0-0.7-0.3-0.7-0.7c0-0.3,0.1-0.5,0.4-0.6c18.6-9.7,30.8-28.9,32.8-51.1&#10;&#9;&#9;c3.3-37.9-23.5-74.1-59.8-80.7c-13.3-2.5-27-0.5-39,5.7c-0.3,0.2-0.8,0.1-0.9-0.3c0,0,0,0,0,0c-0.2-0.3-0.1-0.8,0.3-0.9&#10;&#9;&#9;c0,0,0,0,0,0c12.3-6.4,26.3-8.5,39.9-5.9c37,6.7,64.3,43.5,60.9,82.2c-2,22.8-14.6,42.3-33.5,52.2&#10;&#9;&#9;C213.1,313.5,213,313.5,212.9,313.5z"/>
	<path class="st0_camera-68" d="M135.7,206.1C99,199.5,66.4,225.3,63,263.6s23.6,74.8,60.3,81.4s69.2-19.1,72.6-57.5S172.4,212.8,135.7,206.1z&#10;&#9;&#9;"/>
	<path class="st1_camera-68" d="M134.9,346.8c-3.9,0-7.8-0.4-11.6-1c-37-6.7-64.3-43.5-60.9-82.2c1.7-19.2,10.5-35.8,24.9-46.7&#10;&#9;&#9;c13.7-10.5,31-14.5,48.5-11.4c37,6.7,64.3,43.5,60.9,82.2c-1.7,19.2-10.5,35.8-24.9,46.8C161.2,342.5,148.2,346.8,134.9,346.8z&#10;&#9;&#9; M124.2,205.8c-13,0-25.7,4.2-36.1,12.1c-14,10.7-22.7,27-24.4,45.8c-3.3,38,23.5,74.1,59.8,80.7c17.2,3.1,34-0.9,47.4-11.1&#10;&#9;&#9;c14.1-10.7,22.7-27,24.4-45.8c3.4-37.9-23.5-74.1-59.8-80.7l0,0C131.8,206.1,128,205.8,124.2,205.8L124.2,205.8z"/>
	<path class="st3_camera-68 targetColor" d="M134,224.7c-26.9-4.8-50.7,14-53.2,42.1s17.3,54.8,44.2,59.6s50.7-14,53.2-42.1S160.9,229.6,134,224.7z" style="fill: rgb(104, 225, 253);"/>
	<path class="st1_camera-68" d="M133.4,327.9c-2.9,0-5.7-0.3-8.5-0.8c-27.2-4.9-47.2-32-44.7-60.4c1.2-14.1,7.7-26.3,18.3-34.4&#10;&#9;&#9;c10.2-7.7,23.1-10.8,35.7-8.4l0,0c27.2,4.9,47.3,32,44.8,60.4c-1.2,14.1-7.7,26.3-18.3,34.4C152.8,324.7,143.3,327.9,133.4,327.9z&#10;&#9;&#9; M125.6,224.7c-9.5,0-18.7,3.1-26.3,8.8c-10.2,7.8-16.6,19.7-17.8,33.4c-2.4,27.7,17.1,54.1,43.6,58.9c12.2,2.3,24.7-0.6,34.6-8.1&#10;&#9;&#9;c10.3-7.8,16.6-19.7,17.8-33.4c2.4-27.7-17.1-54.1-43.6-58.9C131.2,224.9,128.4,224.7,125.6,224.7z"/>
	<path class="st1_camera-68" d="M125,326.4c13.9,2.7,28.2-1.4,38.5-11.1c-8.2,3.5-17.2,4.5-25.9,2.8c-26.9-4.8-46.7-31.5-44.2-59.6&#10;&#9;&#9;c0.9-11.8,6.1-22.8,14.6-31c-14.8,6.4-25.6,20.9-27.2,39.3C78.4,294.9,98.2,321.6,125,326.4z"/>
	<path class="st1_camera-68" d="M133.4,327.9c-2.8,0-5.7-0.3-8.5-0.8l0,0c-27.2-4.9-47.2-32-44.7-60.4c1.6-18.2,11.9-33,27.7-39.8&#10;&#9;&#9;c0.3-0.1,0.7,0,0.9,0.3c0.2,0.3,0.1,0.7-0.1,0.9c-8.4,8.1-13.5,18.9-14.4,30.5c-2.4,27.7,17.1,54.1,43.6,58.9&#10;&#9;&#9;c8.6,1.6,17.5,0.6,25.5-2.8c0.3-0.1,0.7,0,0.9,0.2c0.2,0.3,0.1,0.7-0.1,0.9C155.7,323.6,144.8,327.9,133.4,327.9z M125.2,325.8&#10;&#9;&#9;c12.3,2.4,25-0.7,34.9-8.4c-7.3,2.4-15,2.9-22.6,1.5c-27.2-4.9-47.2-32-44.7-60.4c0.8-10.6,5-20.6,12-28.5&#10;&#9;&#9;c-13.2,7.2-21.8,20.7-23.2,36.9C79.1,294.6,98.7,321,125.2,325.8z"/>
	<path class="st2_camera-68" d="M183.4,232.5c-0.3,0-0.5-0.1-0.6-0.4c-0.2-0.3,0-0.8,0.3-0.9l42.8-21.7c0.3-0.2,0.8,0,0.9,0.3&#10;&#9;&#9;c0.2,0.3,0,0.8-0.3,0.9c0,0,0,0,0,0l-42.8,21.7C183.6,232.5,183.5,232.5,183.4,232.5z"/>
	<path class="st2_camera-68" d="M167.7,217.7c-0.4,0-0.7-0.3-0.7-0.7c0-0.3,0.1-0.5,0.4-0.6l42-21.3c0.3-0.2,0.8,0,0.9,0.3&#10;&#9;&#9;c0.2,0.3,0,0.8-0.3,0.9c0,0,0,0,0,0l-42,21.3C167.9,217.7,167.8,217.7,167.7,217.7z"/>
	<path class="st2_camera-68" d="M149.9,208.9c-0.3,0-0.5-0.1-0.6-0.4c-0.2-0.3,0-0.8,0.3-0.9l41.2-21c0.3-0.2,0.8,0,0.9,0.3&#10;&#9;&#9;c0.2,0.3,0,0.8-0.3,0.9c0,0,0,0,0,0l-41.2,20.9C150.2,208.8,150.1,208.9,149.9,208.9z"/>
	<path class="st2_camera-68" d="M135.5,201.6c-0.3,0-0.5-0.1-0.6-0.4c-0.2-0.3,0-0.8,0.3-0.9c0,0,0,0,0,0l37.1-18.9c0.3-0.2,0.8,0,0.9,0.3&#10;&#9;&#9;c0,0,0,0,0,0c0.2,0.3,0,0.8-0.3,0.9l-37.1,18.9C135.8,201.6,135.6,201.6,135.5,201.6z"/>
	<path class="st2_camera-68" d="M196.3,253.4c-0.3,0-0.5-0.1-0.6-0.4c-0.2-0.3,0-0.8,0.3-0.9c0,0,0,0,0,0l41.2-20.9c0.4-0.1,0.8,0,0.9,0.4&#10;&#9;&#9;c0.1,0.3,0,0.7-0.3,0.9l-41.2,20.9C196.5,253.4,196.4,253.5,196.3,253.4z"/>
	<path class="st2_camera-68" d="M198.8,272.2c-0.4,0-0.7-0.3-0.7-0.7c0-0.3,0.2-0.5,0.4-0.6l41.9-19.7c0.3-0.2,0.8,0,0.9,0.3c0,0,0,0,0,0&#10;&#9;&#9;c0.2,0.4,0,0.8-0.3,0.9c0,0,0,0,0,0l-41.9,19.7C199,272.2,198.9,272.2,198.8,272.2z"/>
	<path class="st2_camera-68" d="M199.7,293.7c-0.4,0-0.7-0.3-0.7-0.7c0-0.3,0.1-0.5,0.4-0.6l40.1-20.4c0.3-0.2,0.8,0,0.9,0.3&#10;&#9;&#9;c0.2,0.3,0,0.8-0.3,0.9c0,0,0,0,0,0L200,293.6C199.9,293.7,199.8,293.7,199.7,293.7z"/>
	<path class="st2_camera-68" d="M194.2,313.5c-0.3,0-0.5-0.1-0.6-0.4c-0.2-0.3,0-0.8,0.3-0.9c0,0,0,0,0,0l37.1-18.9c0.3-0.2,0.8-0.1,0.9,0.3&#10;&#9;&#9;c0,0,0,0,0,0c0.2,0.3,0,0.8-0.3,1l-37.1,18.8C194.4,313.5,194.3,313.5,194.2,313.5z"/>
	<path class="st0_camera-68" d="M161.6,282.4c-0.2,0-0.4-0.1-0.5-0.2l-39.5-43.6c-0.3-0.3-0.3-0.7,0-1c0,0,0,0,0,0c0.3-0.3,0.7-0.3,1,0&#10;&#9;&#9;c0,0,0,0,0,0l39.5,43.6c0.3,0.3,0.2,0.7-0.1,1C161.9,282.2,161.8,282.3,161.6,282.4L161.6,282.4z"/>
	<path class="st0_camera-68" d="M158.3,307.4c-0.2,0-0.4-0.1-0.5-0.3l-26.4-31.9c-0.2-0.3-0.2-0.7,0.1-1c0,0,0,0,0,0c0.3-0.3,0.7-0.2,1,0.1&#10;&#9;&#9;c0,0,0,0,0,0l26.4,32c0.2,0.3,0.2,0.7-0.1,1c0,0,0,0,0,0C158.6,307.3,158.5,307.4,158.3,307.4z"/>
	<path class="st0_camera-68" d="M118.5,291.4c-0.2,0-0.4-0.1-0.5-0.2l-15.8-18.1c-0.3-0.3-0.2-0.7,0.1-1c0.3-0.3,0.7-0.2,1,0.1c0,0,0,0,0,0&#10;&#9;&#9;l15.8,18.1c0.3,0.3,0.2,0.7-0.1,1c0,0,0,0,0,0C118.9,291.4,118.7,291.4,118.5,291.4z"/>
	<path class="st2_camera-68" d="M257.4,228.3c-0.3,0-0.6-0.2-0.7-0.6c-5.9-34.2-37-48.2-37.3-48.4c-0.3-0.2-0.5-0.6-0.3-0.9&#10;&#9;&#9;c0.2-0.3,0.5-0.5,0.9-0.3c0.3,0.1,32.1,14.4,38.1,49.4c0.1,0.4-0.2,0.7-0.6,0.8c0,0,0,0,0,0L257.4,228.3z"/>
	<path class="st1_camera-68" d="M357,175.9c-13.6,0-21.9-7.6-28.8-13.8c-3.4-3.1-6.7-6.1-10.1-7.6c-11.2-4.8-67.9-11.6-68.4-11.7&#10;&#9;&#9;c-0.1,0-0.3-0.1-0.4-0.2c-2.4-2.1-14.4-12.6-14.8-16s19.9-12.3,28.6-15.9c0.3-0.2,0.8,0,0.9,0.3c0.2,0.3,0,0.8-0.3,0.9&#10;&#9;&#9;c0,0,0,0-0.1,0c-13.2,5.5-27.5,12.6-27.8,14.5c0.2,2.1,8.7,10.3,14.1,15c4.4,0.5,57.4,7,68.6,11.8c3.6,1.5,6.9,4.6,10.5,7.8&#10;&#9;&#9;c8.3,7.6,17.8,16.2,35.9,12.6c18.9-3.8,22.7-12.1,22.8-12.2c0.2-0.3,0.6-0.5,0.9-0.3c0.3,0.2,0.5,0.5,0.4,0.9&#10;&#9;&#9;c-0.2,0.4-4,9.1-23.8,13C362.6,175.6,359.8,175.9,357,175.9z"/>
	<path class="st1_camera-68" d="M354.2,133.8c0,0,2.9,5,2.5,7.4s-10.2,5.3-19.9,5.5c-9.4,0.1-15-2.9-16.1-4.2s2-8.6,2-8.6H354.2z"/>
	<path class="st1_camera-68" d="M336.1,147.3c-9.4,0-14.8-3-16-4.5s1-7,1.9-9.3c0.1-0.3,0.4-0.4,0.6-0.4h31.5c0.2,0,0.5,0.1,0.6,0.4&#10;&#9;&#9;c0.3,0.5,3,5.3,2.6,7.8c-0.6,3.2-11.7,5.9-20.6,6.1L336.1,147.3z M323.1,134.5c-1.5,3.5-2.4,6.9-2,7.4c0.9,1.1,6.2,4.2,15.6,4&#10;&#9;&#9;c10.5-0.2,19-3.4,19.3-4.9s-1.4-5-2.2-6.5L323.1,134.5z"/>
	<ellipse class="st0_camera-68" cx="338.5" cy="133.8" rx="15.8" ry="4.1"/>
	<path class="st1_camera-68" d="M338.5,138.6c-8.2,0-16.5-1.6-16.5-4.8s8.3-4.8,16.5-4.8s16.5,1.6,16.5,4.8S346.6,138.6,338.5,138.6z&#10;&#9;&#9; M338.5,130.4c-9.2,0-15,2-15,3.4s5.9,3.4,15,3.4s15.1-2,15.1-3.4S347.7,130.4,338.5,130.4L338.5,130.4z"/>
	<path class="st2_camera-68" d="M348.2,323.1c-2.6,0.1-5.2-0.2-7.6-0.9c-1-0.3-1.9-0.5-2.7-0.7c-5.5-1.3-8.2-2.5-8.2-16.5&#10;&#9;&#9;c0-4.1-0.1-13.1-0.2-24.4c-0.5-45.2-0.9-89.7,0.2-93.6s7-3,15.9-1.9c6.5,1,13.1,1.4,19.7,1.4c16.8-0.5,21.6-9.1,21.7-9.2&#10;&#9;&#9;c0.2-0.3,0.6-0.5,0.9-0.3c0.3,0.2,0.5,0.6,0.3,0.9c-0.2,0.4-5.2,9.4-22.9,9.9c-6.7,0-13.3-0.4-19.9-1.4c-7.6-1-13.6-1.7-14.4,0.9&#10;&#9;&#9;c-1.2,4-0.6,59.8-0.2,93.2c0.1,11.4,0.2,20.3,0.2,24.4c0,13.5,2.4,14.1,7.1,15.1c0.9,0.2,1.8,0.4,2.8,0.7&#10;&#9;&#9;c6.2,1.9,28.2,1.1,46.2-12.5c0.3-0.2,0.7-0.2,1,0.1c0,0,0,0,0,0c0.2,0.3,0.2,0.7-0.1,1c0,0,0,0,0,0&#10;&#9;&#9;C376.5,318.1,362.6,322.9,348.2,323.1z"/>
	<path class="st2_camera-68" d="M252.1,140.9c-0.2,0-0.5-0.1-0.6-0.3c-0.2-0.3-0.1-0.8,0.2-1c0,0,0,0,0,0l20.2-13.3c0.3-0.2,0.8-0.1,1,0.2&#10;&#9;&#9;c0.2,0.3,0.1,0.8-0.2,1l0,0l-20.2,13.4C252.4,140.9,252.2,140.9,252.1,140.9z"/>
	<path class="st1_camera-68" d="M173,136.8c-10.7,0-64.6-5.1-67-5.3c-0.4,0-0.7-0.4-0.6-0.8c0-0.4,0.4-0.7,0.8-0.6c0.6,0.1,60.1,5.6,67.7,5.3&#10;&#9;&#9;c19.8-18.1,33.4-24.7,33.6-24.7c0.4-0.2,0.8,0,0.9,0.3c0.2,0.4,0,0.8-0.3,0.9c0,0,0,0,0,0c-0.1,0.1-13.7,6.6-33.4,24.7&#10;&#9;&#9;c-0.1,0.1-0.3,0.2-0.4,0.2C173.9,136.8,173.5,136.8,173,136.8z"/>
	<path class="st1_camera-68" d="M179.4,115.7c0,0,1.8,2.4,1.6,3.3s-11.3,10.4-13.6,11.4s-15,0-17.3-1.4l0.2-4.1L179.4,115.7z"/>
	<path class="st1_camera-68" d="M163.2,131.4c-4.8,0-11.7-0.8-13.5-1.9c-0.2-0.1-0.3-0.4-0.3-0.6l0.2-4.1c0-0.3,0.2-0.5,0.5-0.6l29.2-9.2&#10;&#9;&#9;c0.3-0.1,0.6,0,0.8,0.2c0.8,1,2,2.9,1.7,3.9c-0.4,1.3-12,11-14,11.8C166.2,131.4,164.7,131.5,163.2,131.4z M150.8,128.5&#10;&#9;&#9;c2.9,1.2,14.3,2.1,16.3,1.2c2.2-1,12.7-10.1,13.3-11.1c-0.3-0.8-0.7-1.5-1.2-2.1l-28.2,8.9L150.8,128.5z"/>
	<path class="st0_camera-68" d="M179.4,115.7c1.6,0.9-11.2,10.2-12.8,11c-2.6,1.3-17.1,0.3-16.4-1.8s12.9-10.5,13.8-10.5&#10;&#9;&#9;S177.9,114.8,179.4,115.7z"/>
	<path class="st1_camera-68" d="M161.5,127.9c-4.5,0-10.1-0.7-11.5-1.9c-0.4-0.3-0.6-0.9-0.4-1.4c0.8-2.4,13.2-10.9,14.4-11&#10;&#9;&#9;c0.6-0.1,14,0.4,15.8,1.4l0,0c0.3,0.2,0.5,0.5,0.5,0.9c-0.1,2.3-12.3,10.8-13.3,11.3C165.2,127.8,163.3,128,161.5,127.9z M151,125&#10;&#9;&#9;c1.3,1.3,13.1,2.1,15.4,1c1.7-0.8,11-7.8,12.4-9.8c-2.5-0.6-13.6-1.2-14.6-1.1C162.6,115.5,151.9,123.1,151,125z"/>
	<path class="st1_camera-68" d="M149.9,113.5c0,0,1.8,2.5,1.5,3.3s-11.5,10.1-13.8,11.1c-2.3,1-15-0.3-17.3-1.7l0.3-4.1L149.9,113.5z"/>
	<path class="st1_camera-68" d="M134.1,129c-4.8,0-12.4-1-14.2-2.2c-0.2-0.1-0.3-0.4-0.3-0.6l0.3-4.1c0-0.3,0.2-0.5,0.5-0.6l29.4-8.6&#10;&#9;&#9;c0.3-0.1,0.6,0,0.8,0.3c0.7,1,1.9,2.9,1.6,3.9c-0.5,1.3-12.3,10.7-14.2,11.5C136.6,128.9,135.4,129.1,134.1,129z M121,125.8&#10;&#9;&#9;c2.9,1.3,14.3,2.4,16.3,1.5c2.2-1,12.9-9.8,13.5-10.8c-0.3-0.8-0.7-1.5-1.1-2.2l-28.4,8.3L121,125.8z"/>
	<path class="st0_camera-68" d="M149.9,113.5c1.5,0.9-11.4,10-13,10.7c-2.6,1.2-17.1,0-16.3-2.1s13.1-10.2,14-10.2S148.3,112.6,149.9,113.5z"/>
	<path class="st1_camera-68" d="M132.5,125.4c-4.6,0-10.8-0.8-12.3-2.2c-0.4-0.3-0.6-0.9-0.4-1.4c0.9-2.4,13.4-10.7,14.6-10.7&#10;&#9;&#9;c0.6,0,14,0.7,15.8,1.8c0.3,0.2,0.5,0.5,0.5,0.9c-0.1,2.3-12.5,10.6-13.5,11C135.7,125.3,134.1,125.5,132.5,125.4z M121.2,122.2&#10;&#9;&#9;c1.3,1.3,13.1,2.4,15.3,1.3c1.7-0.8,11.2-7.6,12.6-9.6c-2.5-0.7-13.6-1.5-14.6-1.4C133.1,113,122.2,120.4,121.2,122.2z&#10;&#9;&#9; M149.5,114.1L149.5,114.1z"/>
	<path class="st2_camera-68" d="M151.1,166.9H151c-0.4-0.1-0.6-0.5-0.5-0.8c0-0.1,1.3-6.1-1.4-10c-1.2-1.7-3.1-2.9-5.2-3.1&#10;&#9;&#9;c-9.6-1.6-38.8-5.1-39.1-5.2c-0.4,0-0.7-0.4-0.6-0.8s0.4-0.7,0.8-0.6c0.3,0,29.5,3.6,39.1,5.2c2.5,0.3,4.7,1.7,6.1,3.7&#10;&#9;&#9;c3,4.4,1.6,10.8,1.6,11.1C151.8,166.7,151.5,166.9,151.1,166.9z"/>
	<path class="st3_camera-68 targetColor" d="M231.9,144.9c0,0-2.7-17.4-4.4-17.2s-29.7-3-31.2-1.7s-10.1,14.2-10.4,15.1S231.9,144.9,231.9,144.9z" style="fill: rgb(104, 225, 253);"/>
	<path class="st1_camera-68" d="M231.9,145.6L231.9,145.6c-45.6-2.8-46.2-3.7-46.5-4c-0.1-0.2-0.2-0.4-0.1-0.6c0.3-1.1,9-14,10.6-15.4&#10;&#9;&#9;c1-0.9,6.2-0.7,23.2,0.9c3.9,0.3,7.9,0.7,8.4,0.6c0.7-0.1,2.3-0.3,5.2,17.8c0,0.4-0.2,0.7-0.6,0.8C232,145.6,232,145.6,231.9,145.6&#10;&#9;&#9;L231.9,145.6z M186.9,140.7c4.4,0.8,27.9,2.4,44.1,3.4c-1.1-7.1-2.8-14.6-3.7-15.7c-0.9,0-3.5-0.2-8.5-0.7&#10;&#9;&#9;c-7.3-0.7-20.8-1.9-22.2-1.2C195.4,127.7,188.6,138,186.9,140.7L186.9,140.7z"/>
	<path class="st0_camera-68" d="M226.1,142.2c-0.1,0-0.2,0-0.3-0.1l-19.7-11c-0.3-0.2-0.5-0.6-0.3-0.9c0,0,0,0,0,0c0.2-0.3,0.6-0.5,0.9-0.3&#10;&#9;&#9;l19.7,11c0.3,0.2,0.5,0.6,0.3,0.9C226.6,142.1,226.4,142.2,226.1,142.2z"/>
	<path class="st0_camera-68" d="M204.8,139.5c-0.2,0-0.3-0.1-0.4-0.1l-8.5-6.6c-0.3-0.2-0.4-0.6-0.2-1c0.2-0.3,0.6-0.4,1-0.2&#10;&#9;&#9;c0,0,0.1,0.1,0.1,0.1l8.5,6.6c0.3,0.2,0.4,0.7,0.1,1c0,0,0,0,0,0C205.2,139.5,205,139.5,204.8,139.5z"/>
	<path class="st2_camera-68" d="M291.7,206c-4.6,0-8.3-3.7-8.3-8.3c0-4.6,3.7-8.3,8.3-8.3c4.6,0,8.3,3.7,8.3,8.3c0,0,0,0,0,0&#10;&#9;&#9;C300,202.3,296.3,206,291.7,206z M291.7,190.8c-3.8,0-6.9,3.1-6.9,6.9c0,3.8,3.1,6.9,6.9,6.9c3.8,0,6.9-3.1,6.9-6.9c0,0,0,0,0,0&#10;&#9;&#9;C298.6,193.9,295.5,190.8,291.7,190.8L291.7,190.8z"/>
	<path class="st2_camera-68" d="M290.2,204.1c-3.5,0-6.4-2.9-6.4-6.4c0-3.5,2.9-6.4,6.4-6.4c3.5,0,6.4,2.9,6.4,6.4c0,0,0,0,0,0&#10;&#9;&#9;C296.6,201.3,293.7,204.1,290.2,204.1z M290.2,192.7c-2.8,0-5,2.2-5,5s2.2,5,5,5s5-2.2,5-5S292.9,192.7,290.2,192.7z"/>
	<path class="st2_camera-68" d="M118.5,183.5c-4.6,0-8.3-3.7-8.3-8.3c0-4.6,3.7-8.3,8.3-8.3c4.6,0,8.3,3.7,8.3,8.3c0,0,0,0,0,0&#10;&#9;&#9;C126.8,179.8,123.1,183.5,118.5,183.5z M118.5,168.3c-3.8,0-6.9,3.1-6.9,6.9c0,3.8,3.1,6.9,6.9,6.9c3.8,0,6.9-3.1,6.9-6.9&#10;&#9;&#9;c0,0,0,0,0,0C125.4,171.4,122.3,168.3,118.5,168.3L118.5,168.3z"/>
	<path class="st2_camera-68" d="M116.9,181.6c-3.5,0-6.4-2.9-6.4-6.4c0-3.5,2.9-6.4,6.4-6.4s6.4,2.9,6.4,6.4l0,0&#10;&#9;&#9;C123.3,178.7,120.5,181.6,116.9,181.6z M116.9,170.2c-2.8,0-5,2.2-5,5s2.2,5,5,5s5-2.2,5-5S119.7,170.2,116.9,170.2z"/>
	<path class="st2_camera-68" d="M295.1,308.4c-2.3,0-4.1-1.8-4.1-4.1c0-2.3,1.8-4.1,4.1-4.1c2.3,0,4.1,1.8,4.1,4.1c0,0,0,0,0,0&#10;&#9;&#9;C299.3,306.5,297.4,308.4,295.1,308.4C295.1,308.4,295.1,308.4,295.1,308.4z M295.1,301.5c-1.5,0-2.7,1.2-2.7,2.7s1.2,2.7,2.7,2.7&#10;&#9;&#9;s2.7-1.2,2.7-2.7c0,0,0,0,0,0C297.9,302.8,296.6,301.5,295.1,301.5L295.1,301.5z"/>
	<path class="st0_camera-68" d="M213.2,156.1c1.6,0.2,3.2,0.8,3.8,1.7s-0.2,2.2-1.6,2.9c-1.5,0.6-3.2,1-4.9,1.1c-1.7,0.2-3.3,0.2-5,0&#10;&#9;&#9;c-1.7-0.2-3.4-1.1-3.2-2.1C202.9,156.9,209.5,155.6,213.2,156.1z"/>
	<path class="st1_camera-68" d="M207.6,162.7c-0.7,0-1.5,0-2.2-0.1c-1.3-0.1-2.6-0.7-3.5-1.7c-0.3-0.4-0.4-0.9-0.3-1.3c0.8-3.5,8-4.7,11.7-4.2&#10;&#9;&#9;l0,0c1.2,0.2,3.4,0.7,4.3,2.1c0.3,0.5,0.4,1.1,0.2,1.7c-0.4,1-1.2,1.8-2.1,2.2c-1.6,0.7-3.4,1.1-5.1,1.2&#10;&#9;&#9;C209.6,162.6,208.6,162.7,207.6,162.7z M211.4,156.7c-3.7,0-8,1.3-8.4,3.2c0,0,0,0.1,0.1,0.2c0.7,0.6,1.6,1,2.5,1.1&#10;&#9;&#9;c1.6,0.2,3.2,0.2,4.8-0.1c1.6-0.1,3.2-0.4,4.6-1c0.6-0.3,1.1-0.7,1.4-1.3c0.1-0.2,0-0.4-0.1-0.6c-0.4-0.6-1.6-1.1-3.2-1.4l0,0&#10;&#9;&#9;C212.6,156.8,212,156.7,211.4,156.7L211.4,156.7z"/>
	<path class="st2_camera-68" d="M299.2,181.1L299.2,181.1c-8.3-0.8-30.1-3.7-32.6-5.3c-1.8-1.2-7.1-8-6.7-11.9c0.1-1.2,0.9-2.1,2-2.5&#10;&#9;&#9;c0.1,0,0.2,0,0.3,0c3.2,0.2,31,2.2,34.2,5.4c0.3,0.3,0.6,0.6,0.8,0.8c2.6,2.5,3,3.2,2.7,12.8c0,0.2-0.1,0.4-0.2,0.5&#10;&#9;&#9;C299.6,181,299.4,181.1,299.2,181.1z M262.3,162.8c-0.5,0.2-0.9,0.7-0.9,1.3c-0.4,3.1,4.3,9.5,6,10.6s20.8,4,31.1,5&#10;&#9;&#9;c0.2-8.6-0.1-8.9-2.2-11l-0.9-0.8C293.3,165.6,274.5,163.6,262.3,162.8L262.3,162.8z"/>
	<path class="st0_camera-68" d="M393.3,167.5c0,0-26.2,4.6-25.5,11.5s0.2,66.3,12.2,86s51.8-16.1,66.1,0.7s2.7,45.5-26.4,58&#10;&#9;&#9;c0,0,24.6,0,36.5-14.7s21.6-44.4,10.7-65.4s-52,8.9-64.4,0S393.3,167.5,393.3,167.5z"/>
	<path class="st1_camera-68" d="M419.7,324.4c-0.4,0-0.7-0.3-0.7-0.7c0-0.3,0.2-0.5,0.4-0.6c16-6.9,28-19.6,31.2-33.3&#10;&#9;&#9;c2.1-8.9,0.3-17.3-5.1-23.6c-6.7-7.9-19.7-3.6-32.3,0.6c-13.5,4.5-27.5,9.1-33.9-1.4c-10.1-16.6-11.4-60.3-12-79&#10;&#9;&#9;c-0.1-3.6-0.2-6.2-0.3-7.3c-0.7-7.3,23.4-11.8,26.1-12.2c0.4-0.1,0.8,0.2,0.8,0.6c0,0,0,0.1,0,0.1c0,0.7-2.9,67,9,75.5&#10;&#9;&#9;c4.9,3.5,15,0.5,25.7-2.8c15.1-4.6,32.3-9.7,38.9,3c11.3,21.9,0.3,52.4-10.8,66.1C444.8,324.2,420.7,324.5,419.7,324.4L419.7,324.4&#10;&#9;&#9;z M434.7,260.4c4.7,0,8.8,1.3,11.9,4.9c5.7,6.7,7.6,15.5,5.4,24.9c-3.1,13.3-13.7,25.3-28.6,32.7c7.3-0.7,23.5-3.4,32.3-14.2&#10;&#9;&#9;c10.8-13.4,21.7-43.2,10.6-64.6c-6-11.7-21.9-6.9-37.2-2.3c-11,3.3-21.5,6.4-26.9,2.6c-11.9-8.5-9.9-67.5-9.6-75.8&#10;&#9;&#9;c-9.9,1.8-24.5,6.2-24.1,10.6c0.1,1.2,0.2,3.8,0.3,7.4c0.6,18.6,1.9,62.1,11.8,78.3c5.8,9.6,18.6,5.3,32.2,0.8&#10;&#9;&#9;C420.4,262.9,428.1,260.4,434.7,260.4L434.7,260.4z"/>
	<path class="st2_camera-68" d="M387.7,267.4c-0.1,0-0.2,0-0.3-0.1c-0.3-0.2-0.5-0.6-0.3-1c4.4-8.4,13.7-17.9,14.1-18.3c0.3-0.3,0.7-0.3,1,0&#10;&#9;&#9;c0,0,0,0,0,0c0.3,0.3,0.3,0.7,0,1c-0.1,0.1-9.5,9.7-13.8,17.9C388.2,267.3,388,267.4,387.7,267.4z"/>
	<path class="st1_camera-68" d="M372,166.8c2.1-3.1,13.9-5.3,16.5-5.1s1.3,10.8,1.3,10.8l-18,5.9C371.8,178.4,369.9,170,372,166.8z"/>
	<path class="st1_camera-68" d="M371.8,179.1c-0.1,0-0.2,0-0.4-0.1c-0.2-0.1-0.3-0.3-0.3-0.5c-0.1-0.4-1.9-8.8,0.4-12.1l0,0&#10;&#9;&#9;c2.4-3.6,14.6-5.6,17.1-5.4c0.5,0,0.9,0.3,1.2,0.7c1.8,2.2,0.8,10,0.7,10.9c0,0.3-0.2,0.5-0.5,0.6l-18,5.9&#10;&#9;&#9;C371.9,179.1,371.8,179.1,371.8,179.1z M372.6,167.2c-1.4,2.1-0.8,7.6-0.3,10.3l16.9-5.5c0.4-3.2,0.5-8.2-0.5-9.4&#10;&#9;&#9;c-0.1-0.1-0.2-0.2-0.2-0.2C386,162.2,374.5,164.4,372.6,167.2L372.6,167.2z"/>
</g>
</svg>